<svg width="197" height="140" viewBox="0 0 197 140" fill="none" xmlns="http://www.w3.org/2000/svg">
<path d="M42.8 12.86V16.34H38V18.16H43.88V22H33.2V7H43.76L43.16 10.84H38V12.86H42.8ZM52.0348 16.52L54.0948 7H59.1548L55.4348 22H48.4348L44.7148 7H49.7748L51.8148 16.52H52.0348ZM69.9484 12.86V16.34H65.1484V18.16H71.0284V22H60.3484V7H70.9084L70.3084 10.84H65.1484V12.86H69.9484ZM83.5433 17L86.1433 22H80.8633L78.9033 17.54H77.8633V22H73.0633V7H80.6233C84.0633 7 85.7833 8.75333 85.7833 12.26C85.7833 14.66 85.0366 16.24 83.5433 17ZM78.9633 10.84H77.8633V13.84H78.9633C79.5499 13.84 79.9699 13.78 80.2233 13.66C80.4899 13.54 80.6233 13.2667 80.6233 12.84V11.84C80.6233 11.4133 80.4899 11.14 80.2233 11.02C79.9699 10.9 79.5499 10.84 78.9633 10.84ZM86.6289 7H91.9289L93.2489 12.28H93.4289L94.7689 7H100.069L95.7489 17.92V22H90.9489V17.92L86.6289 7ZM111.946 7V10.84H108.466V22H103.666V10.84H100.186V7H111.946ZM126.459 22H121.659V16.7H118.059V22H113.259V7H118.059V12.3H121.659V7H126.459V22ZM133.664 22H128.864V7H133.664V22ZM149.391 22H144.871L141.211 16.68C141.144 16.5867 141.091 16.4467 141.051 16.26C141.011 16.0733 140.984 15.8267 140.971 15.52H140.871V22H136.071V7H140.591L144.251 12.32C144.318 12.4133 144.371 12.5533 144.411 12.74C144.451 12.9267 144.478 13.1733 144.491 13.48H144.591V7H149.391V22ZM159.474 17.58V16.94H158.254V13.26H164.034V21.28C162.14 22 160.174 22.36 158.134 22.36C156.734 22.36 155.574 22.1933 154.654 21.86C153.747 21.5267 153.027 21.0333 152.494 20.38C151.96 19.7133 151.587 18.8933 151.374 17.92C151.174 16.9333 151.074 15.7867 151.074 14.48C151.074 13.0933 151.2 11.9067 151.454 10.92C151.707 9.92 152.127 9.10667 152.714 8.48C153.3 7.84 154.08 7.37333 155.054 7.08C156.027 6.78667 157.234 6.64 158.674 6.64C158.994 6.64 159.367 6.66 159.794 6.7C160.234 6.72667 160.674 6.77333 161.114 6.84C161.554 6.89333 161.967 6.96 162.354 7.04C162.754 7.10667 163.074 7.18 163.314 7.26L162.594 10.94C161.94 10.8333 161.32 10.7533 160.734 10.7C160.147 10.6333 159.6 10.6 159.094 10.6C158.04 10.6 157.3 10.68 156.874 10.84C156.447 11 156.234 11.32 156.234 11.8V18.6H157.814C158.4 18.6 158.82 18.54 159.074 18.42C159.34 18.2867 159.474 18.0067 159.474 17.58Z" fill="white"/>
<path d="M49.2113 107H6.11133V32H45.0113C52.2113 32 57.3447 33.4 60.4113 36.2C63.478 39 65.0113 43.0667 65.0113 48.4C65.0113 53.8 64.0447 57.9667 62.1113 60.9C60.178 63.7667 57.5447 65.6667 54.2113 66.6V67.3C63.878 68.9667 68.7113 75.5667 68.7113 87.1C68.7113 93.1 67.1113 97.9333 63.9113 101.6C60.778 105.2 55.878 107 49.2113 107ZM39.5113 77.1H30.1113V89.4H39.3113C42.7113 89.4 44.4113 87.3333 44.4113 83.2C44.4113 79.1333 42.778 77.1 39.5113 77.1ZM37.7113 48.4H30.1113V59.6H37.5113C40.578 59.6 42.1113 57.7333 42.1113 54C42.1113 50.2667 40.6447 48.4 37.7113 48.4ZM125.107 87.8V107H77.1074V32H101.107V87.8H125.107ZM156.197 74.4H155.697V107H131.697V32H155.697V62.6H156.197C156.264 61.4 156.397 60.3333 156.597 59.4C156.797 58.4 157.064 57.5333 157.397 56.8L169.097 32H195.097L177.097 68.8L195.697 107H169.697L157.397 80.1C157.064 79.3667 156.797 78.5333 156.597 77.6C156.397 76.6667 156.264 75.6 156.197 74.4Z" fill="white"/>
</svg>
